<?xml version="1.0" encoding="utf-8"?>
<!-- Generator: Adobe Illustrator 24.3.0, SVG Export Plug-In . SVG Version: 6.00 Build 0)  -->
<svg version="1.1" id="Layer_1" xmlns="http://www.w3.org/2000/svg" xmlns:xlink="http://www.w3.org/1999/xlink" x="0px" y="0px"
	 viewBox="0 0 644 32" style="enable-background:new 0 0 644 32;" xml:space="preserve">
<style type="text/css">
	.st0{clip-path:url(#SVGID_2_);}
	.st1{fill:#25334D;}
	.st2{clip-path:url(#SVGID_4_);}
	.st3{fill:#B7B7B7;}
	.st4{clip-path:url(#SVGID_6_);}
	.st5{fill:#5A5A5A;}
	.st6{clip-path:url(#SVGID_8_);}
	.st7{fill:#ED6A5E;}
	.st8{fill:none;stroke:#000000;stroke-width:0.7778;stroke-opacity:0.1;}
	.st9{fill:#F4BD50;}
	.st10{fill:#61C454;}
	.st11{clip-path:url(#SVGID_10_);}
	.st12{fill:#3C5175;}
	.st13{clip-path:url(#SVGID_12_);}
	.st14{fill:#E3E3E3;}
	.st15{fill:#FFFFFF;}
</style>
<g>
	<defs>
		<rect id="SVGID_1_" width="644" height="31.1"/>
	</defs>
	<clipPath id="SVGID_2_">
		<use xlink:href="#SVGID_1_"  style="overflow:visible;"/>
	</clipPath>
	<g class="st0">
		<path class="st1" d="M0,12.4c0-4.4,0-6.5,0.8-8.2c0.7-1.5,1.9-2.7,3.4-3.4C5.9,0,8.1,0,12.4,0h619.1c4.4,0,6.5,0,8.2,0.8
			c1.5,0.7,2.7,1.9,3.4,3.4c0.8,1.7,0.8,3.8,0.8,8.2v18.7H0V12.4z"/>
		<g>
			<defs>
				<rect id="SVGID_3_" x="556.9" y="5.4" width="74.7" height="18.7"/>
			</defs>
			<clipPath id="SVGID_4_">
				<use xlink:href="#SVGID_3_"  style="overflow:visible;"/>
			</clipPath>
			<g class="st2">
				<path class="st3" d="M566.2,16.6c0.3,0,0.6-0.3,0.6-0.6V9.5l0-1l0.4,0.5l0.9,1c0.1,0.1,0.3,0.2,0.4,0.2c0.3,0,0.5-0.2,0.5-0.5
					c0-0.2-0.1-0.3-0.2-0.4l-2.2-2.1c-0.2-0.2-0.3-0.2-0.5-0.2c-0.2,0-0.3,0.1-0.5,0.2l-2.2,2.1c-0.1,0.1-0.2,0.2-0.2,0.4
					c0,0.3,0.2,0.5,0.5,0.5c0.1,0,0.3-0.1,0.4-0.2l0.9-1l0.4-0.5l-0.1,1V16C565.6,16.4,565.9,16.6,566.2,16.6z M562.5,21.8h7.4
					c1.4,0,2.1-0.7,2.1-2.1v-6.3c0-1.4-0.7-2.1-2.1-2.1h-1.7v1.3h1.7c0.6,0,0.9,0.3,0.9,0.9v6.1c0,0.6-0.3,0.9-0.9,0.9h-7.3
					c-0.6,0-0.9-0.3-0.9-0.9v-6.1c0-0.6,0.3-0.9,0.9-0.9h1.7v-1.3h-1.8c-1.4,0-2.1,0.7-2.1,2.1v6.3
					C560.4,21.1,561.1,21.8,562.5,21.8z"/>
				<path class="st3" d="M593.4,20.2c0.4,0,0.7-0.3,0.7-0.7v-4h4c0.4,0,0.7-0.3,0.7-0.7c0-0.4-0.3-0.7-0.7-0.7h-4v-4
					c0-0.4-0.3-0.7-0.7-0.7c-0.4,0-0.7,0.3-0.7,0.7v4h-4c-0.4,0-0.7,0.3-0.7,0.7c0,0.4,0.4,0.7,0.7,0.7h4v4
					C592.7,19.9,593,20.2,593.4,20.2z"/>
				<path class="st3" d="M617.3,18.7h1.1v1c0,1.4,0.7,2.1,2.1,2.1h6.5c1.4,0,2.1-0.7,2.1-2.1v-6.6c0-1.4-0.7-2.1-2.1-2.1H626v-1
					c0-1.4-0.7-2.1-2.1-2.1h-6.5c-1.4,0-2.1,0.7-2.1,2.1v6.6C615.2,18,615.9,18.7,617.3,18.7z M617.4,17.4c-0.6,0-0.9-0.3-0.9-0.9
					v-6.3c0-0.6,0.3-0.9,0.9-0.9h6.4c0.6,0,0.9,0.3,0.9,0.9V11h-4.2c-1.4,0-2.1,0.7-2.1,2.1v4.3H617.4z M620.6,20.5
					c-0.6,0-0.9-0.3-0.9-0.9v-6.4c0-0.6,0.3-0.9,0.9-0.9h6.4c0.6,0,0.9,0.3,0.9,0.9v6.4c0,0.6-0.3,0.9-0.9,0.9H620.6z"/>
			</g>
		</g>
		<g>
			<defs>
				<rect id="SVGID_5_" x="74.7" y="5.4" width="76.2" height="18.7"/>
			</defs>
			<clipPath id="SVGID_6_">
				<use xlink:href="#SVGID_5_"  style="overflow:visible;"/>
			</clipPath>
			<g class="st4">
				<path class="st3" d="M78.3,21.4h11c1.4,0,2.1-0.7,2.1-2.1v-7.9c0-1.4-0.7-2.1-2.1-2.1h-11c-1.4,0-2.1,0.7-2.1,2.1v7.9
					C76.2,20.7,77,21.4,78.3,21.4z M78.4,20.1c-0.6,0-0.9-0.3-0.9-0.9v-7.6c0-0.6,0.3-0.9,0.9-0.9h2.9v9.5H78.4z M89.3,10.6
					c0.6,0,0.9,0.3,0.9,0.9v7.6c0,0.6-0.3,0.9-0.9,0.9h-6.7v-9.5H89.3z M80.1,13c0.2,0,0.4-0.2,0.4-0.4c0-0.2-0.2-0.4-0.4-0.4h-1.3
					c-0.2,0-0.4,0.2-0.4,0.4c0,0.2,0.2,0.4,0.4,0.4H80.1z M80.1,14.7c0.2,0,0.4-0.2,0.4-0.4c0-0.2-0.2-0.4-0.4-0.4h-1.3
					c-0.2,0-0.4,0.2-0.4,0.4c0,0.2,0.2,0.4,0.4,0.4H80.1z M80.1,16.4c0.2,0,0.4-0.2,0.4-0.4c0-0.2-0.2-0.4-0.4-0.4h-1.3
					c-0.2,0-0.4,0.2-0.4,0.4c0,0.2,0.2,0.4,0.4,0.4H80.1z"/>
				<path class="st3" d="M116.2,20.3l-4.7-4.6c-0.2-0.2-0.2-0.3-0.2-0.6c0-0.2,0.1-0.4,0.3-0.6l4.7-4.6c0.1-0.1,0.3-0.2,0.5-0.2
					c0.4,0,0.7,0.3,0.7,0.7c0,0.2-0.1,0.4-0.2,0.5l-4.3,4.1l4.3,4.2c0.1,0.1,0.2,0.3,0.2,0.5c0,0.4-0.3,0.7-0.7,0.7
					C116.5,20.5,116.3,20.4,116.2,20.3z"/>
				<path class="st5" d="M139.6,20.5c0.2,0,0.4-0.1,0.5-0.2l4.7-4.6c0.2-0.2,0.2-0.3,0.2-0.6c0-0.2-0.1-0.4-0.2-0.6l-4.7-4.6
					c-0.1-0.1-0.3-0.2-0.5-0.2c-0.4,0-0.7,0.3-0.7,0.7c0,0.2,0.1,0.4,0.2,0.5l4.3,4.2l-4.3,4.1c-0.1,0.1-0.2,0.3-0.2,0.5
					C138.8,20.2,139.1,20.5,139.6,20.5z"/>
			</g>
		</g>
		<g>
			<defs>
				<rect id="SVGID_7_" x="15.6" y="10.9" width="40.4" height="9.3"/>
			</defs>
			<clipPath id="SVGID_8_">
				<use xlink:href="#SVGID_7_"  style="overflow:visible;"/>
			</clipPath>
			<g class="st6">
				<circle class="st7" cx="20.2" cy="15.6" r="4.7"/>
				<circle class="st8" cx="20.2" cy="15.6" r="4.3"/>
				<circle class="st9" cx="35.8" cy="15.6" r="4.7"/>
				<circle class="st8" cx="35.8" cy="15.6" r="4.3"/>
				<circle class="st10" cx="51.3" cy="15.6" r="4.7"/>
				<circle class="st8" cx="51.3" cy="15.6" r="4.3"/>
			</g>
		</g>
		<path class="st3" d="M220.9,21.8c0.1,0,0.3,0,0.4-0.1c3.7-2,5-3,5-5.3v-4.9c0-0.8-0.3-1.1-0.9-1.3c-0.7-0.3-3.1-1.1-3.8-1.4
			c-0.2-0.1-0.5-0.1-0.7-0.1c-0.2,0-0.5,0.1-0.7,0.1c-0.7,0.2-3.1,1.1-3.8,1.4c-0.6,0.3-0.9,0.6-0.9,1.3v4.9c0,2.4,1.3,3.3,5,5.3
			C220.6,21.7,220.8,21.8,220.9,21.8z M221.2,9.9c0.8,0.3,2.7,1,3.6,1.3c0.2,0.1,0.2,0.2,0.2,0.4v4.5c0,1.9-0.9,2.4-3.8,4.2
			c-0.2,0.1-0.3,0.1-0.4,0.1V9.8C221,9.8,221.1,9.8,221.2,9.9z"/>
		<g>
			<defs>
				<rect id="SVGID_9_" x="234.1" y="4.7" width="175.8" height="21.8"/>
			</defs>
			<clipPath id="SVGID_10_">
				<use xlink:href="#SVGID_9_"  style="overflow:visible;"/>
			</clipPath>
			<g class="st11">
				<path class="st12" d="M234.1,12.1c0-2.6,0-3.9,0.5-4.9c0.4-0.9,1.2-1.6,2-2c1-0.5,2.3-0.5,4.9-0.5h160.8c2.6,0,3.9,0,4.9,0.5
					c0.9,0.4,1.6,1.2,2,2c0.5,1,0.5,2.3,0.5,4.9V19c0,2.6,0,3.9-0.5,4.9c-0.4,0.9-1.2,1.6-2,2c-1,0.5-2.3,0.5-4.9,0.5H241.6
					c-2.6,0-3.9,0-4.9-0.5c-0.9-0.4-1.6-1.2-2-2c-0.5-1-0.5-2.3-0.5-4.9V12.1z"/>
				<g>
					<defs>
						<rect id="SVGID_11_" x="395.5" y="10.1" width="10.1" height="10.9"/>
					</defs>
					<clipPath id="SVGID_12_">
						<use xlink:href="#SVGID_11_"  style="overflow:visible;"/>
					</clipPath>
					<g class="st13">
						<path class="st14" d="M400.4,15.3c0.1,0,0.2,0,0.3-0.1l1.9-1.9c0.1-0.1,0.1-0.2,0.1-0.3c0-0.1,0-0.2-0.1-0.3l-1.9-1.9
							c-0.1-0.1-0.2-0.1-0.3-0.1c-0.2,0-0.4,0.2-0.4,0.5c0,0.1,0,0.2,0.1,0.3l1.1,1.1c-0.2,0-0.4-0.1-0.7-0.1
							c-2.3,0-4.1,1.8-4.1,4.1s1.8,4.1,4.1,4.1c2.3,0,4.1-1.8,4.1-4.1c0-0.3-0.2-0.5-0.5-0.5c-0.3,0-0.4,0.2-0.4,0.5
							c0,1.8-1.4,3.2-3.2,3.2c-1.8,0-3.2-1.4-3.2-3.2c0-1.8,1.4-3.2,3.2-3.2c0.3,0,0.6,0,0.8,0.1l-1.2,1.2c-0.1,0.1-0.1,0.2-0.1,0.3
							C400,15.2,400.2,15.3,400.4,15.3z"/>
					</g>
				</g>
				<path class="st15" d="M248,10.2c-1.6,0-2.9,1.3-2.9,2.9v1.8h-0.6c-0.6,0-1.2,0.5-1.2,1.2v4.7c0,0.6,0.5,1.2,1.2,1.2h7
					c0.6,0,1.2-0.5,1.2-1.2V16c0-0.6-0.5-1.2-1.2-1.2h-0.6v-1.8C250.9,11.5,249.6,10.2,248,10.2z M251.5,16l0,4.7h-7V16H251.5z
					 M246.2,14.8v-1.8c0-1,0.8-1.8,1.8-1.8s1.8,0.8,1.8,1.8v1.8H246.2z"/>
				<g>
					<g>
						<path class="st15" d="M281.7,19.3v-8.5h1.2v8.5H281.7z M285.4,19.3v-3.7c0-0.4-0.1-0.8-0.3-1s-0.5-0.4-0.9-0.4
							c-0.4,0-0.7,0.1-0.9,0.3s-0.3,0.5-0.3,0.9l-0.1-1.2c0.2-0.4,0.4-0.6,0.7-0.8s0.6-0.3,1-0.3c0.7,0,1.2,0.2,1.5,0.6
							s0.5,1,0.5,1.8v3.7H285.4z"/>
						<path class="st15" d="M287.9,14.3v-1.1h2.7v1.1H287.9z M290,19.4c-0.5,0-0.9-0.1-1.1-0.4s-0.3-0.7-0.3-1.2v-6.3h1.2v6.3
							c0,0.1,0,0.3,0.1,0.3s0.1,0.1,0.3,0.1h0.6v1.1H290z"/>
						<path class="st15" d="M291.8,14.3v-1.1h2.7v1.1H291.8z M293.9,19.4c-0.5,0-0.9-0.1-1.1-0.4s-0.3-0.7-0.3-1.2v-6.3h1.2v6.3
							c0,0.1,0,0.3,0.1,0.3s0.1,0.1,0.3,0.1h0.6v1.1H293.9z"/>
						<path class="st15" d="M296.2,21.8v-8.6h1.2v8.6H296.2z M299,19.4c-0.4,0-0.7-0.1-1-0.3s-0.5-0.4-0.6-0.8l0.1-1.3
							c0,0.3,0,0.5,0.1,0.7s0.2,0.3,0.4,0.4s0.4,0.1,0.6,0.1c0.4,0,0.7-0.1,0.9-0.4s0.3-0.6,0.3-1v-1.3c0-0.4-0.1-0.8-0.3-1
							s-0.5-0.4-0.9-0.4c-0.3,0-0.5,0-0.6,0.1s-0.3,0.2-0.4,0.4s-0.1,0.4-0.1,0.7l-0.1-1.2c0.2-0.4,0.4-0.6,0.7-0.8s0.6-0.3,1-0.3
							c0.7,0,1.2,0.2,1.5,0.6s0.5,1,0.5,1.8V17c0,0.8-0.2,1.4-0.6,1.8S299.6,19.4,299,19.4z"/>
						<path class="st15" d="M304.9,19.4c-0.5,0-1-0.1-1.5-0.2s-0.8-0.4-1.2-0.7l0.7-0.9c0.3,0.2,0.7,0.4,1,0.6s0.6,0.2,1,0.2
							c0.5,0,0.8-0.1,1.1-0.2s0.4-0.4,0.4-0.7c0-0.2-0.1-0.4-0.2-0.5c-0.2-0.1-0.4-0.2-0.6-0.2s-0.5-0.1-0.8-0.1
							c-0.2,0-0.5,0-0.7-0.1s-0.5-0.1-0.7-0.2s-0.4-0.3-0.5-0.5s-0.2-0.5-0.2-0.8c0-0.6,0.2-1.1,0.6-1.4s1-0.5,1.8-0.5
							c0.5,0,0.9,0.1,1.3,0.2s0.8,0.3,1.2,0.6l-0.7,0.9c-0.3-0.2-0.6-0.3-0.9-0.4s-0.6-0.1-0.9-0.1c-0.4,0-0.7,0.1-0.9,0.2
							s-0.3,0.3-0.3,0.6c0,0.2,0.1,0.3,0.2,0.4s0.3,0.1,0.6,0.2s0.5,0,0.7,0.1c0.3,0,0.5,0,0.8,0.1s0.5,0.1,0.7,0.2s0.4,0.3,0.5,0.5
							s0.2,0.5,0.2,0.9c0,0.7-0.2,1.1-0.6,1.5S305.8,19.4,304.9,19.4z"/>
						<path class="st15" d="M308.8,14.4v-1.3h1.3v1.3H308.8z M308.8,19.3v-1.3h1.3v1.3H308.8z"/>
						<path class="st15" d="M315.8,9.8l-4,11.1h-1.1l4-11.1H315.8z"/>
						<path class="st15" d="M320.3,9.8l-4,11.1h-1.1l4-11.1H320.3z"/>
						<path class="st15" d="M320.8,19.3v-6.1h1.2v6.1H320.8z M324.4,19.3v-3.7c0-0.4-0.1-0.8-0.3-1s-0.5-0.4-0.9-0.4
							c-0.4,0-0.7,0.1-0.9,0.3s-0.3,0.5-0.3,0.9l-0.1-1.2c0.2-0.4,0.4-0.7,0.7-0.8s0.6-0.3,1-0.3c0.6,0,1.1,0.2,1.5,0.6
							s0.5,1,0.5,1.8v3.7H324.4z M328,19.3v-3.7c0-0.4-0.1-0.8-0.3-1s-0.5-0.4-0.9-0.4c-0.4,0-0.7,0.1-0.9,0.3s-0.3,0.5-0.3,1
							l-0.2-1.2c0.2-0.4,0.4-0.7,0.8-0.9s0.7-0.3,1-0.3c0.7,0,1.2,0.2,1.5,0.6s0.5,1,0.5,1.8v3.7H328z"/>
						<path class="st15" d="M333.5,19.4c-0.8,0-1.5-0.2-2-0.7s-0.7-1.1-0.7-2V16c0-0.9,0.2-1.6,0.7-2.1s1.1-0.7,1.9-0.7
							c0.8,0,1.4,0.3,1.8,0.8s0.6,1.4,0.6,2.4v0.4h-4.1v-1h3c0-0.5-0.2-0.9-0.4-1.2s-0.5-0.4-0.9-0.4c-0.4,0-0.8,0.1-1,0.4
							s-0.4,0.7-0.4,1.3v0.8c0,0.5,0.1,0.9,0.4,1.2s0.6,0.4,1.1,0.4c0.2,0,0.5,0,0.7-0.1s0.5-0.2,0.6-0.4l0.8,0.8
							c-0.3,0.3-0.6,0.5-1,0.7S333.9,19.4,333.5,19.4z"/>
						<path class="st15" d="M339.8,19.4c-0.8,0-1.4-0.2-1.9-0.7s-0.7-1.1-0.7-2v-1c0-0.8,0.2-1.5,0.7-1.9s1.1-0.7,1.9-0.7
							s1.4,0.2,1.9,0.7s0.7,1.1,0.7,1.9v1c0,0.8-0.2,1.5-0.7,1.9S340.6,19.4,339.8,19.4z M339.8,18.3c0.4,0,0.7-0.1,1-0.4
							s0.3-0.6,0.3-1.1v-1c0-0.5-0.1-0.8-0.3-1.1s-0.6-0.4-1-0.4c-0.4,0-0.7,0.1-1,0.4s-0.3,0.6-0.3,1.1v1c0,0.5,0.1,0.8,0.3,1.1
							S339.4,18.3,339.8,18.3z"/>
						<path class="st15" d="M344,19.3v-8.5h1.2v8.5H344z M344.5,18.4l0.1-1.4l3.1-3.8h1.4L344.5,18.4z M348.1,19.3l-2.1-3.5l0.8-0.8
							l2.7,4.3H348.1z"/>
						<path class="st15" d="M350.4,12v-1.2h1.2V12H350.4z M350.4,19.3v-6.1h1.2v6.1H350.4z"/>
						<path class="st15" d="M353.2,19.3v-1.3h1.3v1.3H353.2z"/>
						<path class="st15" d="M358.2,17.6l1.5-4.3h1.2l-2.3,6.1h-0.9l-2.3-6.1h1.2L358.2,17.6z"/>
						<path class="st15" d="M362.1,19.3v-6.1h1.2v6.1H362.1z M365.8,19.3v-3.7c0-0.4-0.1-0.8-0.3-1s-0.5-0.4-0.9-0.4
							c-0.4,0-0.7,0.1-0.9,0.3s-0.3,0.5-0.3,0.9l-0.1-1.2c0.2-0.4,0.4-0.7,0.7-0.8s0.6-0.3,1-0.3c0.7,0,1.2,0.2,1.5,0.6
							s0.5,1,0.5,1.8v3.7H365.8z"/>
					</g>
				</g>
			</g>
		</g>
	</g>
</g>
</svg>
